<?xml version="1.0" encoding="UTF-8" standalone="no"?>
<svg xmlns:xlink="http://www.w3.org/1999/xlink" height="9.0px" width="44.0px" xmlns="http://www.w3.org/2000/svg">
  <g transform="matrix(1.0, 0.0, 0.0, 1.0, -31.0, -15.0)">
    <path d="M67.0 17.5 L67.45 17.5 67.45 18.0 68.0 18.0 68.0 22.0 66.0 22.0 66.0 18.0 64.0 18.0 64.0 22.0 62.0 22.0 62.0 18.0 62.45 18.0 62.45 17.5 63.0 17.5 63.0 17.0 67.0 17.0 67.0 17.5 M70.0 17.5 L70.0 17.0 75.0 17.0 75.0 23.0 74.45 23.0 74.45 23.5 74.0 23.5 74.0 24.0 70.0 24.0 70.0 23.0 73.0 23.0 73.0 22.0 70.0 22.0 70.0 21.5 69.4 21.5 69.4 21.0 69.0 21.0 69.0 18.0 69.45 18.0 69.45 17.5 70.0 17.5 M61.0 16.0 L59.0 16.0 59.0 15.0 61.0 15.0 61.0 16.0 M61.0 22.0 L59.0 22.0 59.0 17.0 61.0 17.0 61.0 22.0 M71.0 18.0 L71.0 21.0 73.0 21.0 73.0 18.0 71.0 18.0 M46.0 18.0 L46.0 17.0 50.0 17.0 50.0 17.5 50.45 17.5 50.45 18.0 51.0 18.0 51.0 22.0 46.0 22.0 46.0 21.5 45.45 21.5 45.45 21.0 45.0 21.0 45.0 20.0 45.45 20.0 45.45 19.5 46.0 19.5 46.0 19.0 49.0 19.0 49.0 18.0 46.0 18.0 M43.5 18.0 L44.0 18.0 44.0 21.0 43.5 21.0 43.5 21.5 43.0 21.5 43.0 22.0 39.0 22.0 39.0 21.5 38.5 21.5 38.5 21.0 38.0 21.0 38.0 18.0 38.5 18.0 38.5 17.5 39.0 17.5 39.0 17.0 43.0 17.0 43.0 17.5 43.5 17.5 43.5 18.0 M49.0 21.0 L49.0 20.0 47.0 20.0 47.0 21.0 49.0 21.0 M42.0 18.0 L40.0 18.0 40.0 21.0 42.0 21.0 42.0 18.0 M56.0 15.0 L58.0 15.0 58.0 22.0 53.0 22.0 53.0 21.5 52.5 21.5 52.5 21.0 52.0 21.0 52.0 18.0 52.5 18.0 52.5 17.5 53.0 17.5 53.0 17.0 56.0 17.0 56.0 15.0 M56.0 18.0 L54.0 18.0 54.0 21.0 56.0 21.0 56.0 18.0 M33.0 15.0 L33.0 21.0 37.0 21.0 37.0 22.0 31.0 22.0 31.0 15.0 33.0 15.0" fill="#ffffff" fill-rule="evenodd" stroke="none"/>
  </g>
</svg>
