<?xml version="1.0" encoding="UTF-8" standalone="no"?>
<svg xmlns:xlink="http://www.w3.org/1999/xlink" height="268.0px" width="300.0px" xmlns="http://www.w3.org/2000/svg">
  <g transform="matrix(1.0, 0.0, 0.0, 1.0, 0.0, 0.0)">
    <path d="M2.0 122.8 L2.0 19.05 Q2.0 2.0 19.05 2.0 L281.0 2.0 Q298.0 2.0 298.0 19.05 L298.0 122.8 2.0 122.8" fill="url(#gradient0)" fill-rule="evenodd" stroke="none"/>
    <path d="M298.0 122.8 L298.0 231.0 Q298.0 248.0 281.0 248.0 L19.05 248.0 Q2.0 248.0 2.0 231.0 L2.0 122.8 298.0 122.8" fill="url(#gradient1)" fill-rule="evenodd" stroke="none"/>
    <path d="M2.0 165.1 L2.0 216.45 2.0 231.0 Q2.0 234.95 2.95 238.0 L3.8 240.25 Q5.6 243.95 9.2 245.9 11.55 247.2 14.7 247.7 L19.0 248.0 25.25 248.0 28.8 248.0 35.85 248.0 38.3 248.0 54.05 248.0 58.75 248.0 71.65 248.0 101.5 248.0 195.0 248.0 231.5 248.0 238.4 248.0 281.0 248.0 Q294.05 248.0 297.1 238.0 298.0 234.95 298.0 231.0 L298.0 19.05 Q298.0 2.0 281.0 2.0 L19.05 2.0 Q2.0 2.0 2.0 19.05 L2.0 165.1 M282.0 0.0 Q300.0 0.0 300.0 18.05 L300.0 232.0 Q300.0 235.3 299.4 238.0 296.7 250.0 282.0 250.0 L18.05 250.0 15.3 249.9 Q11.9 249.6 9.3 248.55 5.1 246.9 2.8 243.4 1.3 241.1 0.6 238.0 L0.55 237.6 Q0.0 235.05 0.0 232.0 L0.0 18.05 Q0.0 0.0 18.05 0.0 L282.0 0.0" fill="#000000" fill-rule="evenodd" stroke="none"/>
    <path d="M2.0 165.1 L14.8 153.55 15.15 153.25 15.25 144.55 Q15.4 138.35 15.7 132.65 L16.5 120.6 16.8 116.7 16.75 116.75 Q17.3 110.45 18.1 104.5 18.25 103.1 19.3 102.25 L19.35 102.25 22.9 99.45 Q25.3 97.5 27.75 95.7 L38.4 87.85 42.9 84.75 51.2 79.15 51.4 79.05 Q49.05 76.25 48.25 72.9 47.7 70.8 47.75 68.45 L49.1 59.4 49.5 57.75 50.9 53.05 53.8 45.55 53.95 45.45 Q55.45 44.65 57.2 44.15 L60.65 43.2 65.5 41.85 65.6 41.85 Q65.15 41.05 65.1 40.15 63.5 39.8 62.45 38.6 L62.4 38.55 62.1 38.0 Q61.9 36.75 61.85 34.65 61.75 32.8 62.15 29.5 63.05 28.2 64.55 27.65 L64.85 27.55 64.85 27.5 Q65.25 23.3 68.6 20.3 72.4 16.8 77.85 16.8 83.4 16.8 87.2 20.3 89.65 22.55 90.5 25.0 L92.8 26.25 Q92.75 28.85 92.3 31.3 L93.25 32.7 92.45 38.6 91.95 40.85 88.65 42.1 87.9 44.3 88.05 44.4 88.05 44.35 88.55 44.5 90.55 45.55 90.65 45.55 94.6 47.95 96.0 48.8 97.25 49.65 Q99.65 53.75 100.8 56.4 L102.95 62.1 103.05 62.15 103.1 62.3 170.2 72.25 170.25 72.25 Q170.95 72.35 171.6 72.75 L174.65 74.9 174.75 74.85 209.1 50.7 209.15 50.45 209.1 50.5 Q209.4 49.6 209.8 48.85 210.5 47.2 211.65 45.75 213.3 43.5 215.5 41.8 L216.65 40.85 216.7 40.85 216.85 40.75 221.15 37.25 235.7 25.6 235.85 25.4 239.95 22.1 240.1 21.95 240.6 21.6 240.55 21.6 Q242.3 20.05 244.35 18.95 L244.55 18.85 Q250.45 15.45 257.8 15.8 268.0 16.2 275.05 23.75 L275.15 23.8 275.25 23.85 277.8 27.15 278.0 27.35 278.1 27.5 278.05 27.5 Q282.15 33.8 282.0 41.7 281.75 48.95 277.9 54.6 L277.85 54.7 Q276.25 56.9 274.1 58.95 270.15 62.5 265.6 64.15 L265.5 64.15 236.6 76.55 236.55 76.55 236.45 76.6 235.95 76.85 235.85 76.85 Q232.7 78.05 229.15 78.25 L226.25 78.15 226.2 78.15 226.05 78.1 209.95 86.75 196.0 94.2 Q193.8 95.3 191.65 96.45 L193.95 103.45 Q195.2 107.6 195.9 111.8 L196.4 115.95 204.0 116.9 203.95 116.85 204.0 116.85 Q205.25 117.0 206.1 117.95 L206.15 118.0 206.25 118.15 206.2 118.2 206.45 118.6 206.75 119.15 207.0 120.15 207.0 120.3 207.1 126.8 207.35 126.8 222.0 127.8 Q234.8 129.0 243.65 131.05 L243.9 131.1 244.0 131.1 Q249.45 132.8 254.2 136.65 259.25 140.7 263.4 147.25 L264.55 149.1 266.05 151.8 267.5 154.7 267.5 154.75 268.35 156.75 268.35 156.7 269.3 158.8 269.3 158.85 270.35 161.85 270.35 161.9 270.4 162.8 270.4 162.85 Q270.2 164.3 269.0 165.2 L259.7 171.85 259.85 177.1 259.85 183.0 Q259.5 193.7 257.55 204.35 256.45 210.2 254.75 215.9 L251.3 225.6 Q251.3 226.95 250.2 228.15 L246.6 235.55 245.25 238.0 Q242.2 243.3 238.4 248.0 L231.5 248.0 Q234.15 244.95 236.6 241.25 L238.75 238.0 242.0 232.7 244.0 228.35 233.1 227.5 Q232.6 227.45 232.4 227.15 232.2 226.85 232.3 226.55 L232.35 226.4 234.2 222.45 234.8 221.8 Q235.3 221.5 235.85 221.55 L246.6 222.35 Q249.55 215.1 250.95 209.7 L252.25 203.9 253.55 195.9 241.25 194.8 Q240.75 194.7 240.45 194.4 240.15 194.15 240.2 193.8 L240.2 193.7 240.8 189.75 Q240.85 189.4 241.25 189.15 L242.15 188.95 254.15 190.0 254.4 186.05 254.45 183.0 254.45 178.0 254.4 177.1 253.95 171.1 218.75 167.9 218.9 177.1 218.9 177.5 218.6 183.0 Q217.75 194.1 215.15 204.95 L214.6 207.2 Q211.85 218.4 206.9 228.8 L205.95 230.8 202.05 238.0 Q198.85 243.25 195.0 248.0 L101.5 248.0 102.0 247.75 103.2 247.45 117.65 247.85 Q122.85 241.4 125.15 238.0 L126.3 236.25 130.4 228.2 130.7 227.5 132.1 224.0 132.15 223.85 118.6 223.25 Q118.05 223.2 117.8 222.85 117.6 222.55 117.75 222.2 L117.75 222.05 119.6 217.7 Q119.75 217.3 120.3 217.0 120.8 216.7 121.4 216.7 L134.5 217.3 Q136.65 210.85 137.6 206.35 L138.3 203.3 Q139.15 199.9 140.05 194.05 L140.7 188.3 126.45 187.45 125.6 187.1 Q125.3 186.8 125.3 186.45 L125.3 186.3 125.85 182.05 Q125.85 181.65 126.3 181.35 126.7 181.05 127.3 181.1 L141.15 181.85 141.3 178.85 141.5 160.1 99.0 157.4 98.7 170.5 98.35 176.1 98.3 177.1 97.75 183.0 Q96.45 194.6 93.35 205.8 L92.2 209.6 Q87.6 224.6 79.05 238.0 L77.5 240.4 Q74.75 244.45 71.65 248.0 L58.75 248.0 Q60.05 244.7 60.45 240.85 L60.65 238.0 Q60.7 232.15 58.25 227.75 55.2 222.3 50.1 222.3 45.0 222.3 40.8 227.7 37.35 232.1 36.15 238.0 L35.75 240.8 Q35.3 244.7 35.85 248.0 L28.8 248.0 29.35 244.5 Q29.65 240.95 28.95 238.0 28.4 235.75 27.3 233.85 24.7 229.4 20.55 229.4 L19.0 229.55 Q15.8 230.2 13.1 233.8 11.65 235.7 10.75 238.0 9.55 240.9 9.3 244.45 L9.2 245.9 Q5.6 243.95 3.8 240.25 L4.35 238.0 Q4.85 235.35 5.0 232.45 5.5 223.25 2.0 216.45 L2.0 165.1 M257.55 20.8 Q250.85 20.45 245.4 23.85 L241.0 27.15 Q231.3 34.75 222.5 42.4 L217.05 47.05 216.75 47.4 Q215.25 49.1 214.35 51.0 213.8 52.05 213.5 53.2 L213.5 53.3 213.45 53.3 213.45 53.35 213.4 53.4 212.95 55.65 Q212.8 57.0 212.9 58.5 L213.3 61.35 235.25 46.25 Q235.0 42.65 237.05 38.7 L237.1 41.15 Q237.15 43.15 237.65 45.3 L237.65 45.35 Q238.4 48.25 240.05 50.85 L242.4 53.95 245.15 56.4 245.55 56.7 246.25 57.2 246.35 57.25 Q250.75 60.15 256.4 60.4 260.25 60.6 263.65 59.5 L263.7 59.5 263.75 59.45 263.8 59.45 Q267.5 58.15 270.7 55.25 276.7 49.7 276.95 41.55 277.15 35.25 273.8 30.2 L273.85 30.2 271.5 27.25 Q265.85 21.15 257.55 20.8 M258.75 23.9 Q261.1 24.0 263.2 24.7 L264.25 25.1 Q267.05 26.4 268.7 28.25 L268.1 28.0 Q265.4 26.9 264.1 27.1 L246.0 43.8 Q246.75 46.5 248.7 48.7 L273.2 34.55 Q274.45 36.0 274.5 39.3 L274.5 39.8 251.1 50.8 Q252.5 51.8 254.05 52.4 L272.95 46.8 Q272.45 49.0 269.35 51.9 264.45 56.4 257.75 56.1 L257.7 56.1 Q253.9 55.95 250.8 54.3 L250.8 54.25 Q248.8 53.2 247.1 51.55 L247.05 51.5 246.45 50.85 244.6 48.55 244.55 48.5 244.5 48.4 Q243.15 46.3 242.5 43.9 L242.5 43.85 Q241.95 41.65 242.05 39.3 242.25 32.6 247.1 28.1 252.0 23.6 258.75 23.9 M205.75 148.35 L205.7 148.3 Q203.9 146.2 201.75 144.4 196.15 139.9 188.0 137.65 L147.55 133.95 Q150.75 138.85 152.65 144.55 L153.95 149.35 153.95 149.6 153.95 149.8 153.95 149.9 153.95 150.0 153.9 150.2 153.45 151.05 145.05 159.15 145.15 162.15 145.15 163.15 145.3 163.15 145.3 163.2 210.8 169.1 Q211.95 156.75 206.2 148.95 L205.75 148.35 M210.1 58.65 Q210.0 57.25 210.15 56.0 L155.1 94.15 155.05 94.2 Q154.2 94.7 153.55 95.5 152.25 96.95 151.9 98.85 L151.8 99.45 151.8 100.75 Q151.9 101.9 152.3 103.0 L152.45 103.4 212.5 66.85 212.5 66.8 Q211.3 64.8 210.7 62.55 210.2 60.65 210.1 58.65 M170.35 78.2 L169.05 77.35 94.75 66.65 Q92.3 66.5 91.85 68.1 91.65 68.55 91.7 69.2 94.75 76.65 97.15 86.1 L97.6 87.85 98.6 92.8 99.1 95.7 99.55 99.45 99.6 99.95 100.05 104.95 100.25 104.95 118.05 107.2 118.1 107.2 118.15 106.75 118.15 106.7 118.05 100.55 117.8 97.4 117.2 92.8 Q116.6 88.45 114.7 82.0 116.0 80.35 117.8 79.6 L120.3 79.0 161.15 84.65 170.35 78.2 M207.2 133.65 Q220.95 140.95 223.15 155.4 L242.1 157.2 242.15 156.55 Q242.2 156.2 242.55 156.0 L243.45 155.75 257.85 157.05 259.6 158.9 264.0 159.3 Q261.8 154.5 258.95 150.05 252.05 139.15 242.45 136.1 229.25 133.1 207.2 132.0 L204.8 131.9 203.55 131.9 204.6 132.4 207.2 133.65 M189.55 106.6 Q188.55 102.85 187.2 99.45 L186.9 98.7 181.0 101.8 181.45 106.7 181.45 106.75 181.25 110.35 181.25 110.6 180.85 112.8 180.55 113.9 180.2 114.95 191.1 116.35 191.15 116.35 190.95 114.5 190.4 110.65 190.15 109.15 189.55 106.7 189.55 106.6 M189.0 120.8 L98.55 109.85 98.55 110.1 98.6 110.1 98.45 114.7 106.05 115.2 106.2 115.25 113.4 115.95 Q125.1 117.35 131.55 120.1 L131.65 120.15 Q134.4 121.45 136.8 123.05 L139.35 124.85 142.35 127.5 142.45 127.65 142.8 127.95 188.5 132.9 191.55 129.35 191.55 129.3 192.15 128.6 192.8 128.05 195.1 127.45 201.6 126.85 201.55 122.4 188.75 120.85 189.0 120.8 M176.65 107.0 L176.65 106.7 176.5 104.2 162.6 111.5 162.55 111.55 162.35 112.25 162.35 112.65 175.35 114.4 175.4 114.25 175.55 113.75 175.65 113.4 175.7 113.25 176.05 112.15 176.05 112.2 176.4 110.35 176.4 110.25 176.65 107.0 M188.15 159.3 Q189.2 159.3 189.95 160.05 L189.9 160.05 Q190.65 160.75 190.65 161.8 190.65 162.85 189.95 163.6 L189.9 163.6 Q189.2 164.3 188.15 164.3 187.1 164.3 186.4 163.6 185.65 162.85 185.65 161.8 185.65 160.75 186.4 160.05 187.1 159.3 188.15 159.3 M201.05 163.45 Q201.05 162.4 201.8 161.7 202.55 160.95 203.6 160.95 204.65 160.95 205.35 161.7 206.1 162.4 206.1 163.45 206.1 164.5 205.35 165.2 L205.35 165.25 Q204.65 165.95 203.6 165.95 202.55 165.95 201.8 165.2 L201.8 165.25 Q201.05 164.5 201.05 163.45 M173.5 160.1 Q173.5 161.15 172.8 161.85 L172.75 161.9 Q172.05 162.6 171.0 162.6 L169.85 162.3 169.25 161.85 169.25 161.9 Q168.5 161.15 168.5 160.1 168.5 159.05 169.25 158.35 169.55 158.05 169.85 157.9 170.35 157.6 171.0 157.6 172.05 157.6 172.8 158.35 L172.75 158.35 Q173.5 159.05 173.5 160.1 M90.75 27.85 L90.35 27.1 Q82.4 24.7 73.45 25.55 L73.25 25.65 72.95 25.75 72.95 25.8 72.6 26.05 Q72.3 28.15 72.45 29.85 L72.45 29.9 Q72.65 32.55 73.2 32.75 L79.05 33.25 Q80.15 33.2 80.8 32.75 L81.2 32.25 81.3 32.15 82.0 31.25 Q82.45 30.4 83.25 30.5 L85.7 30.75 Q86.35 30.75 86.7 31.5 L86.95 32.2 87.0 32.3 87.45 33.55 87.5 33.7 89.7 33.75 90.15 32.95 Q91.05 30.05 90.75 27.85 M85.3 33.3 L83.75 33.15 83.6 33.15 83.5 33.25 83.25 33.65 82.9 34.2 82.55 34.7 82.3 35.1 82.25 35.15 80.6 35.6 79.0 35.85 78.0 35.95 77.8 35.95 Q76.95 36.05 76.85 36.35 L76.65 36.85 76.6 37.25 76.6 37.35 76.6 37.45 76.65 37.5 76.7 37.8 76.9 38.6 77.1 39.2 77.55 40.55 78.7 41.5 79.95 42.2 81.35 42.55 81.8 42.6 82.6 42.6 83.0 42.6 83.5 42.55 85.15 42.15 86.3 41.55 86.7 41.05 87.0 40.4 87.5 38.95 87.6 38.6 87.8 37.85 88.0 36.7 87.8 36.4 87.5 36.2 87.25 36.1 86.7 35.95 86.1 35.75 86.05 35.7 85.95 35.3 85.75 34.75 85.6 34.15 85.4 33.55 85.3 33.3 M102.9 71.55 Q103.85 71.5 104.5 72.25 105.2 73.0 105.2 74.0 L105.2 74.2 Q105.15 75.15 104.6 75.8 L103.7 76.45 103.05 76.55 Q102.1 76.55 101.45 75.85 100.75 75.15 100.75 74.1 100.7 73.05 101.35 72.3 101.95 71.55 102.9 71.55 M94.55 61.0 L94.6 61.0 93.9 57.5 Q93.55 53.8 93.7 51.2 91.8 50.2 89.75 49.75 L88.4 52.4 Q85.75 54.6 82.25 54.6 78.85 54.65 75.75 53.4 73.5 52.5 71.6 51.1 L69.9 49.8 68.15 47.95 67.65 47.3 62.5 48.05 Q63.9 52.1 64.25 54.55 L64.85 59.25 Q65.15 61.5 64.9 66.25 L60.75 63.7 65.3 71.15 67.4 70.05 72.5 67.5 78.3 64.65 81.5 63.2 Q87.8 60.55 94.5 61.0 L94.55 61.0 M106.55 84.5 Q107.35 84.45 107.95 85.0 L108.15 85.2 Q108.85 85.95 108.85 86.95 108.9 88.0 108.25 88.75 L107.0 89.5 106.7 89.5 Q105.75 89.5 105.1 88.8 104.45 88.15 104.4 87.15 L104.4 87.05 Q104.35 86.0 105.0 85.25 L105.2 85.05 Q105.8 84.5 106.55 84.5 M32.55 196.5 Q31.15 192.7 31.0 185.3 L2.25 205.5 Q5.05 207.1 7.55 210.25 L9.05 212.35 18.7 205.8 19.0 205.6 32.55 196.5 M38.3 176.9 Q38.15 180.05 38.3 183.0 38.8 195.25 44.45 204.4 51.45 215.8 62.15 215.8 72.85 215.85 81.0 204.5 87.65 195.3 89.45 183.0 L90.05 177.0 Q90.75 162.9 85.5 152.45 L83.85 149.5 Q76.9 138.15 66.2 138.15 55.5 138.1 47.3 149.45 44.45 153.4 42.5 157.95 38.85 166.45 38.3 176.9 M78.7 120.7 Q72.5 122.8 66.1 125.7 50.4 132.8 33.45 144.55 L27.1 149.05 35.4 144.55 Q60.25 131.25 75.55 126.15 79.15 124.9 82.25 124.2 84.75 125.15 86.95 126.75 93.9 132.0 97.4 143.9 L126.25 146.4 126.3 146.15 Q126.3 145.75 126.7 145.5 127.1 145.2 127.65 145.25 L143.25 146.15 145.2 148.05 148.3 148.35 147.0 144.55 Q145.1 139.65 142.1 135.3 L140.6 133.3 140.0 132.6 Q137.4 129.5 134.1 127.05 L133.65 126.7 Q132.4 125.75 131.05 124.95 L128.25 123.9 Q120.35 121.2 108.15 120.3 L106.2 120.2 98.25 119.65 96.75 119.55 90.6 119.1 85.05 118.75 78.7 120.7 M149.55 92.75 L155.85 88.35 124.85 84.2 124.8 84.2 124.25 84.4 Q128.3 89.85 128.65 95.25 129.0 101.45 126.55 106.7 L126.3 107.25 125.8 108.15 125.85 108.15 143.45 110.2 144.55 106.7 Q148.35 94.2 149.55 92.75 M79.2 154.05 Q84.85 163.45 84.2 176.75 L83.5 183.0 Q81.85 192.3 76.9 199.35 73.2 204.55 68.9 206.85 L69.05 206.85 71.35 209.35 57.45 209.35 55.35 208.35 55.35 207.25 53.0 205.8 Q54.55 206.7 57.75 206.85 L60.55 206.85 64.4 206.55 Q60.6 205.1 56.7 199.95 L55.05 197.35 43.85 197.1 41.8 195.6 41.85 193.5 53.35 193.75 Q51.85 189.95 50.85 185.0 L42.6 184.7 42.45 183.0 Q42.25 179.95 42.4 176.65 42.95 165.6 47.6 157.3 L49.7 154.0 Q56.3 144.7 64.95 144.7 73.2 144.7 78.75 153.3 L79.2 154.05 M110.05 102.95 Q109.4 103.7 108.5 103.7 L107.4 103.45 107.1 103.2 106.9 103.0 106.45 102.4 106.2 101.25 Q106.15 100.2 106.8 99.45 L107.35 99.0 Q107.8 98.7 108.35 98.7 109.3 98.65 109.95 99.4 110.65 100.15 110.65 101.2 110.7 102.2 110.05 102.95 M153.85 155.8 Q154.9 155.8 155.65 156.55 156.35 157.3 156.4 158.35 156.35 159.35 155.65 160.1 154.9 160.85 153.85 160.85 152.85 160.8 152.1 160.1 151.35 159.4 151.35 158.35 151.35 157.3 152.1 156.55 152.85 155.8 153.85 155.8 M38.3 248.0 L38.3 247.65 43.1 247.75 Q42.5 246.15 42.2 244.05 L38.8 243.95 38.85 240.6 39.25 238.0 Q40.1 234.1 42.3 231.1 45.2 227.2 48.8 227.25 52.4 227.2 54.55 231.15 56.2 234.1 56.3 238.0 L56.2 240.6 Q55.8 244.75 54.05 248.0 L38.3 248.0 M29.8 214.45 L28.5 213.35 27.8 212.55 26.75 210.9 26.65 211.0 26.6 210.9 19.55 215.2 20.2 219.2 29.8 214.45 M14.7 247.7 L14.6 247.1 11.8 247.0 11.8 244.25 Q12.05 240.7 13.5 238.0 L14.4 236.55 Q16.45 233.75 19.0 233.45 L19.65 233.4 Q22.55 233.4 24.4 236.6 L25.1 238.0 Q26.15 240.75 25.9 244.3 25.75 246.25 25.25 248.0 L19.0 248.0 14.7 247.7" fill="#000000" fill-opacity="0.13725491" fill-rule="evenodd" stroke="none"/>
    <path d="M298.0 19.05 Q298.0 2.0 281.0 2.0 L19.05 2.0 Q2.0 2.0 2.0 19.05 L2.0 231.0 Q2.0 234.95 2.95 238.0 6.0 248.0 19.0 248.0 L281.0 248.0 Q294.05 248.0 297.1 238.0 298.0 234.95 298.0 231.0 L298.0 19.05 M282.0 0.0 Q300.0 0.0 300.0 18.05 L300.0 232.0 Q300.0 235.3 299.4 238.0 296.7 250.0 282.0 250.0 L18.05 250.0 Q3.3 250.0 0.65 238.0 0.0 235.3 0.0 232.0 L0.0 18.05 Q0.0 0.0 18.05 0.0 L282.0 0.0" fill="#000000" fill-rule="evenodd" stroke="none"/>
    <path d="M86.0 261.0 L86.0 267.0 85.45 267.0 85.45 267.1 85.4 267.1 85.4 267.55 85.0 267.55 85.0 268.0 82.0 268.0 82.0 267.0 85.0 267.0 85.0 266.0 82.0 266.0 82.0 265.55 81.4 265.55 81.4 265.0 81.0 265.0 81.0 261.0 82.0 261.0 82.0 265.0 85.0 265.0 85.0 261.0 86.0 261.0 M33.0 259.5 L33.45 259.5 33.45 260.0 34.0 260.0 34.0 262.0 33.45 262.0 33.45 262.5 33.0 262.5 33.0 263.0 29.0 263.0 29.0 266.0 28.0 266.0 28.0 259.0 33.0 259.0 33.0 259.5 M29.0 262.0 L33.0 262.0 33.0 260.0 29.0 260.0 29.0 262.0 M40.0 262.0 L40.0 265.0 39.45 265.0 39.45 265.5 39.0 265.5 39.0 266.0 36.0 266.0 36.0 265.5 35.45 265.5 35.45 265.0 35.0 265.0 35.0 262.0 35.45 262.0 35.45 261.5 36.0 261.5 36.0 261.0 39.0 261.0 39.0 261.5 39.45 261.5 39.45 262.0 40.0 262.0 M39.0 262.0 L36.0 262.0 36.0 265.0 39.0 265.0 39.0 262.0 M76.0 259.0 L76.0 261.0 79.0 261.0 79.0 261.5 79.4 261.5 79.4 262.0 80.0 262.0 80.0 265.0 79.4 265.0 79.4 265.5 79.0 265.5 79.0 266.0 75.0 266.0 75.0 259.0 76.0 259.0 M67.0 261.0 L70.0 261.0 70.0 259.0 71.0 259.0 71.0 266.0 67.0 266.0 67.0 265.5 66.55 265.5 66.55 265.0 66.0 265.0 66.0 262.0 66.55 262.0 66.55 261.5 67.0 261.5 67.0 261.0 M70.0 265.0 L70.0 262.0 67.0 262.0 67.0 265.0 70.0 265.0 M64.5 261.55 L64.5 262.0 65.0 262.0 65.0 264.1 61.0 264.1 61.0 265.0 64.0 265.0 64.0 266.0 61.0 266.0 61.0 265.55 60.5 265.55 60.5 265.1 60.0 265.1 60.0 262.0 60.5 262.0 60.5 261.55 61.0 261.55 61.0 261.0 64.0 261.0 64.0 261.55 64.5 261.55 M64.0 263.0 L64.0 262.1 61.0 262.1 61.0 263.0 64.0 263.0 M79.0 262.0 L76.0 262.0 76.0 265.0 79.0 265.0 79.0 262.0 M49.5 262.0 L49.5 261.55 50.0 261.55 50.0 261.0 53.0 261.0 53.0 261.55 53.5 261.55 53.5 262.0 54.0 262.0 54.0 264.1 50.0 264.1 50.0 265.0 53.0 265.0 53.0 266.0 50.0 266.0 50.0 265.55 49.5 265.55 49.5 265.1 49.0 265.1 49.0 262.0 49.5 262.0 M48.0 261.0 L48.0 265.0 47.5 265.0 47.5 265.5 47.0 265.5 47.0 266.0 45.0 266.0 45.0 265.0 44.0 265.0 44.0 266.0 42.0 266.0 42.0 265.5 41.5 265.5 41.5 265.0 41.0 265.0 41.0 261.0 42.0 261.0 42.0 265.0 44.0 265.0 44.0 261.0 45.0 261.0 45.0 265.0 47.0 265.0 47.0 261.0 48.0 261.0 M50.0 263.0 L53.0 263.0 53.0 262.1 50.0 262.1 50.0 263.0 M59.0 262.0 L57.25 262.0 57.25 262.2 57.0 262.2 57.0 263.0 56.0 263.0 56.0 266.0 55.0 266.0 55.0 261.0 56.0 261.0 56.0 262.0 56.75 262.0 56.75 261.75 57.0 261.75 57.0 261.0 59.0 261.0 59.0 262.0" fill="#ffffff" fill-rule="evenodd" stroke="none"/>
  </g>
  <defs>
    <radialGradient cx="0" cy="0" gradientTransform="matrix(0.7345, 0.0, 0.0, 0.2504, 140.0, 110.0)" gradientUnits="userSpaceOnUse" id="gradient0" r="819.2" spreadMethod="pad">
      <stop offset="0.47843137254901963" stop-color="#ffffff" stop-opacity="0.0"/>
      <stop offset="1.0" stop-color="#ffffff" stop-opacity="0.5921569"/>
    </radialGradient>
    <radialGradient cx="0" cy="0" gradientTransform="matrix(0.558, 0.0, 0.0, 0.2504, 138.25, 118.3)" gradientUnits="userSpaceOnUse" id="gradient1" r="819.2" spreadMethod="pad">
      <stop offset="0.47843137254901963" stop-color="#000000" stop-opacity="0.0"/>
      <stop offset="1.0" stop-color="#000000" stop-opacity="0.5921569"/>
    </radialGradient>
  </defs>
</svg>
