<?xml version="1.0" encoding="UTF-8" standalone="no"?>
<svg xmlns:xlink="http://www.w3.org/1999/xlink" height="9.0px" width="71.0px" xmlns="http://www.w3.org/2000/svg">
  <g transform="matrix(1.0, 0.0, 0.0, 1.0, -4.0, -4.0)">
    <path d="M74.5 9.0 L75.0 9.0 75.0 10.0 74.5 10.0 74.5 10.55 74.0 10.55 74.0 11.0 69.0 11.0 69.0 10.0 73.0 10.0 73.0 9.0 70.0 9.0 70.0 8.55 69.5 8.55 69.5 8.0 69.0 8.0 69.0 7.0 69.5 7.0 69.5 6.55 70.0 6.55 70.0 6.0 75.0 6.0 75.0 7.0 71.0 7.0 71.0 8.0 74.0 8.0 74.0 8.55 74.5 8.55 74.5 9.0 M66.0 4.0 L68.0 4.0 68.0 11.0 63.0 11.0 63.0 10.5 62.5 10.5 62.5 10.0 62.0 10.0 62.0 7.0 62.5 7.0 62.5 6.5 63.0 6.5 63.0 6.0 66.0 6.0 66.0 4.0 M61.0 11.0 L59.0 11.0 59.0 7.0 57.0 7.0 57.0 11.0 55.0 11.0 55.0 7.0 55.45 7.0 55.45 6.5 56.0 6.5 56.0 6.0 60.0 6.0 60.0 6.5 60.45 6.5 60.45 7.0 61.0 7.0 61.0 11.0 M64.0 10.0 L66.0 10.0 66.0 7.0 64.0 7.0 64.0 10.0 M54.0 6.0 L54.0 11.0 49.0 11.0 49.0 10.45 48.4 10.45 48.4 10.0 48.0 10.0 48.0 6.0 50.0 6.0 50.0 10.0 52.0 10.0 52.0 6.0 54.0 6.0 M41.5 7.0 L41.5 6.5 42.0 6.5 42.0 6.0 46.0 6.0 46.0 6.5 46.5 6.5 46.5 7.0 47.0 7.0 47.0 10.0 46.5 10.0 46.5 10.5 46.0 10.5 46.0 11.0 42.0 11.0 42.0 10.5 41.5 10.5 41.5 10.0 41.0 10.0 41.0 7.0 41.5 7.0 M43.0 10.0 L45.0 10.0 45.0 7.0 43.0 7.0 43.0 10.0 M40.0 6.0 L40.0 7.0 38.45 7.0 38.45 7.45 38.0 7.45 38.0 8.0 37.0 8.0 37.0 11.0 35.0 11.0 35.0 6.0 37.0 6.0 37.0 7.0 37.45 7.0 37.45 6.75 37.7 6.75 37.7 6.45 38.0 6.45 38.0 6.0 40.0 6.0 M32.0 7.0 L30.0 7.0 30.0 10.0 32.0 10.0 32.0 7.0 M33.45 12.0 L33.45 12.5 33.0 12.5 33.0 13.0 29.0 13.0 29.0 12.0 32.0 12.0 32.0 11.0 29.0 11.0 29.0 10.5 28.4 10.5 28.4 10.0 28.0 10.0 28.0 7.0 28.45 7.0 28.45 6.5 29.0 6.5 29.0 6.0 34.0 6.0 34.0 12.0 33.45 12.0 M24.0 6.0 L24.0 10.0 25.0 10.0 25.0 6.0 27.0 6.0 27.0 10.0 26.45 10.0 26.45 10.5 26.0 10.5 26.0 11.0 24.0 11.0 24.0 10.5 22.0 10.5 22.0 11.0 20.0 11.0 20.0 10.5 19.45 10.5 19.45 10.0 19.0 10.0 19.0 6.0 21.0 6.0 21.0 10.0 22.0 10.0 22.0 6.0 24.0 6.0 M14.0 8.0 L16.0 8.0 16.0 7.0 14.0 7.0 14.0 8.0 M12.5 7.0 L12.5 6.5 13.0 6.5 13.0 6.0 17.0 6.0 17.0 6.5 17.5 6.5 17.5 7.0 18.0 7.0 18.0 9.0 14.0 9.0 14.0 10.0 17.0 10.0 17.0 11.0 13.0 11.0 13.0 10.5 12.5 10.5 12.5 10.0 12.0 10.0 12.0 7.0 12.5 7.0 M11.0 11.0 L9.0 11.0 9.0 9.25 8.7 9.25 8.7 9.0 8.0 9.0 8.0 8.25 7.7 8.25 7.7 8.0 7.0 8.0 7.0 7.25 6.7 7.25 6.7 7.0 6.0 7.0 6.0 11.0 4.0 11.0 4.0 4.0 6.0 4.0 6.0 4.75 6.2 4.75 6.2 5.0 7.0 5.0 7.0 5.75 7.2 5.75 7.2 6.0 8.0 6.0 8.0 6.75 8.2 6.75 8.2 7.0 9.0 7.0 9.0 4.0 11.0 4.0 11.0 11.0" fill="#ff9900" fill-rule="evenodd" stroke="none"/>
  </g>
</svg>
